<svg xmlns="http://www.w3.org/2000/svg" xmlns:xlink="http://www.w3.org/1999/xlink" version="1.1" width="16" height="16" fill="none" viewBox="0 0 256 256" xml:space="preserve">

<defs>
</defs>
<g style="stroke: none; stroke-width: 0; stroke-dasharray: none; stroke-linecap: butt; stroke-linejoin: miter; stroke-miterlimit: 10; fill: none; fill-rule: nonzero; opacity: 1;" transform="translate(1.4065934065934016 1.4065934065934016) scale(2.81 2.81)" >
	<path d="M 45.327 27.748 c 2.28 0 4.136 -1.855 4.136 -4.135 v -3.579 c 0 -2.28 -1.855 -4.135 -4.136 -4.135 s -4.135 1.855 -4.135 4.135 v 3.579 C 41.192 25.893 43.047 27.748 45.327 27.748 z" style="stroke: none; stroke-width: 1; stroke-dasharray: none; stroke-linecap: butt; stroke-linejoin: miter; stroke-miterlimit: 10; fill: rgb(255,255,255); fill-rule: nonzero; opacity: 1;" transform=" matrix(1 0 0 1 0 0) " stroke-linecap="round" />
	<path d="M 73.653 0 H 16.347 C 12.494 0 9.36 3.134 9.36 6.987 v 76.026 c 0 3.853 3.134 6.987 6.987 6.987 h 57.307 c 3.853 0 6.986 -3.135 6.986 -6.987 V 6.987 C 80.64 3.134 77.506 0 73.653 0 z M 34.049 39.025 c 0 -4.112 2.219 -7.706 5.516 -9.677 c -1.465 -1.472 -2.373 -3.5 -2.373 -5.736 v -3.579 c 0 -4.486 3.649 -8.135 8.135 -8.135 c 4.486 0 8.136 3.649 8.136 8.135 v 3.579 c 0 2.236 -0.908 4.264 -2.373 5.736 c 3.297 1.971 5.516 5.565 5.516 9.677 v 5.412 c 0 1.104 -0.896 2 -2 2 H 36.049 c -1.104 0 -2 -0.896 -2 -2 V 39.025 z M 69.378 78.103 H 20.622 c -1.104 0 -2 -0.896 -2 -2 s 0.896 -2 2 -2 h 48.756 c 1.104 0 2 0.896 2 2 S 70.482 78.103 69.378 78.103 z M 69.378 68.329 H 20.622 c -1.104 0 -2 -0.896 -2 -2 s 0.896 -2 2 -2 h 48.756 c 1.104 0 2 0.896 2 2 S 70.482 68.329 69.378 68.329 z M 69.378 58.557 H 20.622 c -1.104 0 -2 -0.896 -2 -2 s 0.896 -2 2 -2 h 48.756 c 1.104 0 2 0.896 2 2 S 70.482 58.557 69.378 58.557 z" style="stroke: none; stroke-width: 1; stroke-dasharray: none; stroke-linecap: butt; stroke-linejoin: miter; stroke-miterlimit: 10; fill: rgb(255,255,255); fill-rule: nonzero; opacity: 1;" transform=" matrix(1 0 0 1 0 0) " stroke-linecap="round" />
	<path d="M 52.605 39.025 c 0 -4.013 -3.265 -7.278 -7.278 -7.278 c -4.013 0 -7.278 3.265 -7.278 7.278 v 3.412 h 14.556 V 39.025 z" style="stroke: none; stroke-width: 1; stroke-dasharray: none; stroke-linecap: butt; stroke-linejoin: miter; stroke-miterlimit: 10; fill: rgb(255,255,255); fill-rule: nonzero; opacity: 1;" transform=" matrix(1 0 0 1 0 0) " stroke-linecap="round" />
</g>
</svg>